# xmcd CD database file
#
# Track frame offsets:
#	150
#	76881
#	96047
#	115279
#	138361
#
# Disc length: 2151 seconds
#
# Revision: 0
# Processed by: cddbd v1.5.1PL0 Copyright (c) Steve Scherf et al.
# Submitted via: CDex 1.51
#
DISCID=36086505
DTITLE=Sun Ra - heliocentric worlds vol.3
DYEAR=1965
DGENRE=Jazz
TTITLE0=intercosmosis
TTITLE1=mythology metamorphosis
TTITLE2=heliocentric worlds
TTITLE3=world worlds
TTITLE4=interplanetary travelers
EXTD=YEAR: 1965
EXTT0=
EXTT1=
EXTT2=
EXTT3=
EXTT4=
PLAYORDER=
